# xmcd
# 
# Track frame offsets:
#     150
#     31187
#     57789
#     101364
#     130732
#     148524
#     218492
#     242602
# 
# Disc length: 4038
# 
# Revision: 0
# Processed by: cddbd v1.5.2PL0 Copyright (c) Steve Scherf et al.
# Submitted via: BonkEnc v1.0.15
# 
DISCID=600fc408
DTITLE=Gong - Live Gazeuse !
DYEAR=1976
DGENRE=Progressive Rock
TTITLE0=Expresso
TTITLE1=Wish
TTITLE2=Ensuria
TTITLE3=Mandrake
TTITLE4=Shadows Of
TTITLE5=Percolations
TTITLE6=Gattox
TTITLE7=Live in Sunbird 1979
EXTD=1-7: Gong -  Live at Reading Festival August 26, 1976\n8: Allan Holdsworth and Gordon Bec -k Live in Sunbird 1979
EXTT0=
EXTT1=
EXTT2=
EXTT3=
EXTT4=
EXTT5=
EXTT6=
EXTT7=
PLAYORDER=
